<svg id="svg" version="1.1" xmlns="http://www.w3.org/2000/svg" xmlns:xlink="http://www.w3.org/1999/xlink" width="400" height="363.5348837209302" viewBox="0, 0, 400,363.5348837209302"><g id="svgg"><path id="path0" d="M238.279 54.640 C 237.970 54.721,237.953 57.971,237.953 119.611 L 237.953 184.496 259.332 205.737 C 274.828 221.134,280.791 226.947,281.006 226.865 C 281.276 226.761,281.302 221.043,281.301 161.794 L 281.299 96.837 260.014 75.674 C 248.307 64.035,238.701 54.521,238.667 54.533 C 238.633 54.545,238.458 54.593,238.279 54.640 M174.083 81.020 C 173.786 81.236,173.770 84.682,173.814 136.479 L 173.860 191.706 194.605 209.265 C 218.268 229.294,216.416 227.764,216.813 227.612 C 217.092 227.504,217.116 223.154,217.114 172.213 L 217.112 116.930 197.719 100.526 C 187.053 91.504,177.442 83.372,176.362 82.455 C 174.667 81.015,174.356 80.820,174.083 81.020 M109.628 115.844 C 109.443 115.919,109.396 124.489,109.397 157.829 L 109.399 199.721 130.705 213.352 C 149.003 225.058,152.064 226.956,152.378 226.787 C 152.742 226.593,152.745 226.214,152.698 184.800 L 152.651 143.010 131.349 129.370 C 119.633 121.868,110.005 115.735,109.953 115.740 C 109.902 115.746,109.756 115.793,109.628 115.844 M146.541 245.579 C 142.132 246.376,138.300 248.973,136.241 252.558 C 131.752 260.374,133.083 272.047,139.031 277.043 C 144.452 281.596,153.849 281.803,159.580 277.495 C 167.821 271.300,168.318 255.059,160.461 248.689 C 157.328 246.150,151.091 244.756,146.541 245.579 M304.658 245.589 C 298.578 246.547,294.848 250.847,295.311 256.366 C 295.695 260.957,297.977 262.610,306.605 264.551 C 314.842 266.404,316.267 267.338,316.273 270.884 C 316.279 274.686,313.308 276.714,307.721 276.720 C 302.219 276.726,299.242 274.586,298.552 270.127 L 298.353 268.837 296.220 268.837 L 294.088 268.837 294.214 270.222 C 294.874 277.511,301.463 281.662,310.345 280.384 C 317.374 279.373,321.020 275.632,320.691 269.767 C 320.398 264.527,318.210 262.770,309.453 260.744 C 300.750 258.731,299.628 258.061,299.628 254.884 C 299.628 250.887,303.656 248.612,309.209 249.472 C 312.679 250.009,314.693 251.817,315.350 254.982 L 315.561 256.000 317.706 256.000 L 319.850 256.000 319.727 254.837 C 319.028 248.266,312.622 244.335,304.658 245.589 M62.884 262.884 L 62.884 279.628 64.465 279.628 L 66.047 279.628 66.047 271.628 L 66.047 263.628 74.233 263.628 L 82.419 263.628 82.419 262.326 L 82.419 261.023 74.233 261.023 L 66.047 261.023 66.047 254.884 L 66.047 248.744 75.070 248.744 L 84.093 248.744 84.093 247.442 L 84.093 246.140 73.488 246.140 L 62.884 246.140 62.884 262.884 M90.047 262.884 L 90.047 279.628 91.628 279.628 L 93.209 279.628 93.209 262.884 L 93.209 246.140 91.628 246.140 L 90.047 246.140 90.047 262.884 M101.953 262.884 L 101.953 279.628 103.534 279.628 L 105.114 279.628 105.162 265.020 L 105.209 250.413 114.577 265.020 L 123.944 279.628 125.786 279.628 L 127.628 279.628 127.628 262.884 L 127.628 246.140 126.048 246.140 L 124.467 246.140 124.420 260.777 L 124.372 275.414 114.910 260.777 L 105.448 246.140 103.701 246.140 L 101.953 246.140 101.953 262.884 M171.907 262.977 L 171.907 279.628 174.233 279.628 L 176.558 279.628 176.558 272.558 L 176.558 265.488 182.651 265.486 C 189.211 265.483,190.136 265.383,192.061 264.472 C 197.326 261.982,198.562 252.765,194.161 248.809 C 191.586 246.493,190.687 246.332,180.326 246.328 L 171.907 246.326 171.907 262.977 M199.628 248.279 L 199.628 250.233 205.209 250.233 L 210.791 250.233 210.791 264.930 L 210.791 279.628 213.116 279.628 L 215.442 279.628 215.442 264.930 L 215.442 250.233 221.116 250.233 L 226.791 250.233 226.791 248.279 L 226.791 246.326 213.209 246.326 L 199.628 246.326 199.628 248.279 M232.000 262.977 L 232.000 279.628 234.233 279.628 L 236.465 279.628 236.465 262.977 L 236.465 246.326 234.233 246.326 L 232.000 246.326 232.000 262.977 M243.535 262.972 L 243.535 279.628 245.794 279.628 L 248.054 279.628 247.963 265.721 C 247.896 255.548,247.926 251.945,248.075 252.303 C 248.187 252.572,250.330 258.829,252.837 266.208 L 257.395 279.624 259.628 279.625 L 261.860 279.627 266.492 265.906 C 269.040 258.360,271.177 252.124,271.243 252.049 C 271.309 251.974,271.328 258.148,271.286 265.770 L 271.210 279.628 273.373 279.628 L 275.535 279.628 275.535 262.972 L 275.535 246.317 272.346 246.368 L 269.157 246.419 264.513 260.186 C 261.959 267.758,259.806 274.021,259.728 274.104 C 259.651 274.187,258.597 271.340,257.386 267.778 C 256.175 264.217,254.044 257.953,252.650 253.860 L 250.116 246.419 246.825 246.368 L 243.535 246.317 243.535 262.972 M283.721 262.977 L 283.721 279.628 285.953 279.628 L 288.186 279.628 288.186 262.977 L 288.186 246.326 285.953 246.326 L 283.721 246.326 283.721 262.977 M326.884 262.977 L 326.884 279.628 339.256 279.628 L 351.628 279.628 351.628 277.674 L 351.628 275.721 341.488 275.721 L 331.349 275.721 331.349 270.047 L 331.349 264.372 340.558 264.372 L 349.767 264.372 349.767 262.419 L 349.767 260.465 340.558 260.465 L 331.349 260.465 331.349 255.442 L 331.349 250.419 341.302 250.419 L 351.256 250.419 351.256 248.372 L 351.256 246.326 339.070 246.326 L 326.884 246.326 326.884 262.977 M153.257 249.788 C 158.799 251.228,162.074 257.163,161.316 264.396 C 160.353 273.595,154.725 278.098,146.558 276.204 C 140.101 274.706,136.676 266.800,138.784 258.256 C 140.418 251.631,146.548 248.045,153.257 249.788 M189.356 250.770 C 193.292 252.549,193.383 259.080,189.498 260.918 C 188.046 261.604,186.534 261.760,181.256 261.764 L 176.558 261.767 176.558 255.990 L 176.558 250.213 182.465 250.269 C 188.234 250.324,188.395 250.336,189.356 250.770 " stroke="none" fill="#fbfbfb" fill-rule="evenodd"></path><path id="path1" d="M0.000 181.767 L 0.000 363.535 200.000 363.535 L 400.000 363.535 400.000 181.767 L 400.000 0.000 200.000 0.000 L 0.000 0.000 0.000 181.767 M263.860 79.392 L 281.488 96.910 281.488 161.829 L 281.488 226.747 281.077 226.855 C 280.552 226.992,282.043 228.433,257.908 204.453 L 237.953 184.627 237.953 119.729 C 237.953 58.138,237.970 54.819,238.279 54.590 C 238.658 54.307,236.978 52.678,263.860 79.392 M195.989 98.923 L 217.287 116.930 217.295 172.233 C 217.301 219.824,217.266 227.535,217.039 227.535 C 216.894 227.535,216.741 227.638,216.699 227.764 C 216.652 227.905,216.195 227.635,215.516 227.066 C 214.908 226.557,205.266 218.406,194.089 208.953 L 173.767 191.767 173.767 136.364 C 173.767 92.216,173.815 80.942,174.000 80.867 C 174.426 80.696,174.582 80.824,195.989 98.923 M131.413 129.285 L 152.744 142.942 152.744 184.822 C 152.744 225.502,152.734 226.707,152.397 226.918 C 152.095 227.106,149.231 225.331,130.630 213.428 L 109.211 199.721 109.210 157.881 C 109.209 113.189,109.171 115.298,109.971 115.588 C 110.032 115.610,119.681 121.774,131.413 129.285 M154.450 245.764 C 161.587 247.322,165.751 252.916,166.088 261.395 C 166.580 273.795,158.832 281.808,147.537 280.583 C 139.080 279.666,134.096 273.962,133.481 264.497 C 132.628 251.345,141.932 243.032,154.450 245.764 M311.995 245.943 C 316.963 247.396,319.799 250.757,319.811 255.209 L 319.814 256.186 317.607 256.186 L 315.399 256.186 315.288 255.375 C 314.752 251.461,312.030 249.499,307.125 249.491 C 302.371 249.484,299.737 251.389,299.725 254.843 C 299.714 257.977,300.691 258.554,309.544 260.648 C 317.971 262.641,320.138 264.237,320.714 268.875 C 321.550 275.609,317.589 279.694,309.358 280.587 C 300.817 281.513,294.140 276.868,294.140 269.998 L 294.140 268.825 296.325 268.878 L 298.511 268.930 298.639 269.963 C 299.182 274.314,302.327 276.657,307.611 276.648 C 313.303 276.638,316.654 274.192,316.205 270.374 C 315.849 267.349,314.471 266.493,307.263 264.824 C 302.257 263.665,300.772 263.229,299.279 262.476 C 292.877 259.247,294.208 249.177,301.415 246.315 C 304.028 245.277,309.107 245.099,311.995 245.943 M84.093 247.349 L 84.093 248.744 75.070 248.744 L 66.047 248.744 66.047 254.884 L 66.047 261.023 74.233 261.023 L 82.419 261.023 82.419 262.326 L 82.419 263.628 74.233 263.628 L 66.047 263.628 66.047 271.628 L 66.047 279.628 64.372 279.628 L 62.698 279.628 62.698 262.915 C 62.698 253.722,62.753 246.146,62.822 246.078 C 62.890 246.009,67.704 245.953,73.519 245.953 L 84.093 245.953 84.093 247.349 M93.350 262.837 L 93.397 279.628 91.722 279.628 L 90.047 279.628 90.047 262.783 L 90.047 245.939 91.674 245.993 L 93.302 246.047 93.350 262.837 M114.819 260.444 L 124.186 274.935 124.279 260.491 L 124.372 246.047 126.000 245.993 L 127.628 245.939 127.628 262.783 L 127.628 279.628 125.721 279.627 L 123.814 279.626 114.512 265.112 L 105.209 250.599 105.162 265.114 L 105.114 279.628 103.534 279.628 L 101.953 279.628 101.953 262.791 L 101.953 245.953 103.703 245.953 L 105.452 245.953 114.819 260.444 M189.427 246.401 C 196.195 247.696,199.278 255.505,195.386 261.496 C 193.074 265.054,191.673 265.519,182.930 265.628 L 176.558 265.708 176.558 272.668 L 176.558 279.628 174.233 279.628 L 171.907 279.628 171.907 262.884 L 171.907 246.140 179.984 246.140 C 186.149 246.140,188.384 246.201,189.427 246.401 M226.791 248.279 L 226.791 250.419 221.209 250.419 L 215.628 250.419 215.628 265.023 L 215.628 279.628 213.209 279.628 L 210.791 279.628 210.791 265.023 L 210.791 250.419 205.209 250.419 L 199.628 250.419 199.628 248.279 L 199.628 246.140 213.209 246.140 L 226.791 246.140 226.791 248.279 M236.651 262.884 L 236.651 279.628 234.233 279.628 L 231.814 279.628 231.814 262.884 L 231.814 246.140 234.233 246.140 L 236.651 246.140 236.651 262.884 M254.892 260.096 C 259.166 272.694,259.648 274.005,259.837 273.551 C 259.952 273.275,262.087 266.995,264.581 259.595 L 269.116 246.142 272.419 246.141 L 275.721 246.140 275.721 262.884 L 275.721 279.628 273.490 279.628 L 271.258 279.628 271.211 266.060 L 271.163 252.492 266.586 266.013 L 262.010 279.535 259.635 279.535 L 257.260 279.535 252.676 266.078 L 248.093 252.621 248.045 266.124 L 247.998 279.628 245.766 279.628 L 243.535 279.628 243.535 262.884 L 243.535 246.140 246.845 246.140 L 250.155 246.140 254.892 260.096 M288.372 262.884 L 288.372 279.628 285.953 279.628 L 283.535 279.628 283.535 262.884 L 283.535 246.140 285.953 246.140 L 288.372 246.140 288.372 262.884 M351.442 248.279 L 351.442 250.419 341.488 250.419 L 331.535 250.419 331.535 255.442 L 331.535 260.465 340.744 260.465 L 349.953 260.465 349.953 262.419 L 349.953 264.372 340.744 264.372 L 331.535 264.372 331.535 269.953 L 331.535 275.535 341.581 275.535 L 351.628 275.535 351.628 277.581 L 351.628 279.628 339.256 279.628 L 326.884 279.628 326.884 262.884 L 326.884 246.140 339.163 246.140 L 351.442 246.140 351.442 248.279 M147.163 249.779 C 135.831 252.221,135.020 272.986,146.140 275.990 C 153.832 278.069,159.584 274.178,161.023 265.924 C 162.869 255.342,156.386 247.791,147.163 249.779 M176.558 255.893 L 176.558 261.581 181.665 261.581 C 187.875 261.581,189.362 261.312,190.837 259.916 C 192.843 258.020,192.551 252.982,190.347 251.457 C 188.825 250.404,188.461 250.351,182.279 250.275 L 176.558 250.204 176.558 255.893 " stroke="none" fill="#2c8cac" fill-rule="evenodd"></path><path id="path2" d="M260.837 76.513 C 260.837 76.540,262.491 78.193,264.512 80.188 L 268.186 83.814 264.560 80.140 C 261.191 76.726,260.837 76.381,260.837 76.513 M281.394 161.767 C 281.394 197.479,281.416 212.061,281.442 194.171 C 281.468 176.281,281.468 147.063,281.442 129.241 C 281.416 111.419,281.394 126.056,281.394 161.767 M109.301 157.860 C 109.301 180.884,109.322 190.275,109.349 178.729 C 109.375 167.184,109.375 148.347,109.349 136.869 C 109.322 125.391,109.301 134.837,109.301 157.860 M256.372 202.839 C 256.372 202.866,258.026 204.519,260.047 206.513 L 263.721 210.140 260.095 206.465 C 256.726 203.051,256.372 202.707,256.372 202.839 M175.966 246.279 C 178.147 246.309,181.664 246.309,183.780 246.279 C 185.896 246.249,184.112 246.225,179.814 246.225 C 175.516 246.225,173.785 246.249,175.966 246.279 M206.386 246.279 C 210.154 246.307,216.265 246.307,219.967 246.279 C 223.669 246.251,220.586 246.228,213.116 246.228 C 205.647 246.228,202.618 246.251,206.386 246.279 M231.900 246.372 C 231.851 246.500,231.833 254.056,231.860 263.163 L 231.909 279.721 231.955 263.029 L 232.000 246.337 234.279 246.279 L 236.558 246.220 234.273 246.180 C 232.586 246.150,231.965 246.200,231.900 246.372 M244.744 246.266 C 247.469 246.400,250.191 246.407,250.111 246.279 C 250.064 246.202,248.585 246.156,246.826 246.175 C 245.067 246.195,244.130 246.236,244.744 246.266 M269.147 246.275 C 269.098 246.354,270.515 246.394,272.296 246.364 L 275.533 246.309 275.582 262.922 L 275.631 279.535 275.629 262.884 L 275.628 246.233 272.432 246.182 C 270.675 246.154,269.196 246.196,269.147 246.275 M283.621 246.372 C 283.572 246.500,283.554 254.056,283.581 263.163 L 283.630 279.721 283.675 263.029 L 283.721 246.337 286.000 246.279 L 288.279 246.220 285.994 246.180 C 284.307 246.150,283.686 246.200,283.621 246.372 M333.070 246.279 C 336.421 246.307,341.905 246.307,345.256 246.279 C 348.607 246.251,345.865 246.227,339.163 246.227 C 332.460 246.227,329.719 246.251,333.070 246.279 M138.409 249.628 L 137.767 250.326 138.465 249.684 C 139.114 249.088,139.248 248.930,139.106 248.930 C 139.075 248.930,138.761 249.244,138.409 249.628 M149.535 249.434 C 149.765 249.478,150.142 249.478,150.372 249.434 C 150.602 249.389,150.414 249.353,149.953 249.353 C 149.493 249.353,149.305 249.389,149.535 249.434 M271.220 252.047 C 271.189 252.123,271.209 253.149,271.265 254.326 L 271.368 256.465 271.405 254.186 C 271.438 252.134,271.394 251.624,271.220 252.047 M192.244 255.907 C 192.245 256.521,192.279 256.750,192.321 256.415 C 192.362 256.081,192.361 255.579,192.319 255.299 C 192.277 255.019,192.243 255.293,192.244 255.907 M247.874 256.744 C 247.874 257.409,247.907 257.681,247.949 257.349 C 247.990 257.016,247.990 256.472,247.949 256.140 C 247.907 255.807,247.874 256.079,247.874 256.744 M316.612 256.138 C 317.255 256.174,318.260 256.174,318.845 256.137 C 319.429 256.100,318.902 256.071,317.674 256.071 C 316.447 256.071,315.968 256.102,316.612 256.138 M161.363 262.419 C 161.364 263.135,161.398 263.405,161.438 263.019 C 161.478 262.633,161.478 262.047,161.437 261.717 C 161.396 261.387,161.363 261.702,161.363 262.419 M179.034 261.721 C 180.447 261.752,182.708 261.752,184.058 261.720 C 185.407 261.689,184.251 261.663,181.488 261.663 C 178.726 261.663,177.621 261.689,179.034 261.721 M336.432 275.674 C 339.279 275.703,343.883 275.703,346.664 275.674 C 349.445 275.645,347.116 275.622,341.488 275.622 C 335.860 275.622,333.585 275.645,336.432 275.674 M307.023 276.787 C 307.407 276.827,308.035 276.827,308.419 276.787 C 308.802 276.747,308.488 276.714,307.721 276.714 C 306.953 276.714,306.640 276.747,307.023 276.787 " stroke="none" fill="#a4c4dc" fill-rule="evenodd"></path><path id="path3" d="M249.767 65.488 C 251.812 67.535,253.527 69.209,253.578 69.209 C 253.629 69.209,251.998 67.535,249.953 65.488 C 247.909 63.442,246.194 61.767,246.143 61.767 C 246.092 61.767,247.723 63.442,249.767 65.488 M278.326 93.860 C 280.012 95.549,281.433 96.930,281.484 96.930 C 281.535 96.930,280.198 95.549,278.512 93.860 C 276.826 92.172,275.404 90.791,275.353 90.791 C 275.302 90.791,276.640 92.172,278.326 93.860 M217.116 172.149 L 217.209 227.628 217.256 172.289 C 217.282 141.852,217.240 116.887,217.163 116.810 C 217.086 116.733,217.065 141.635,217.116 172.149 M245.116 191.814 C 247.161 193.860,248.876 195.535,248.927 195.535 C 248.978 195.535,247.347 193.860,245.302 191.814 C 243.258 189.767,241.543 188.093,241.492 188.093 C 241.441 188.093,243.072 189.767,245.116 191.814 M270.884 217.351 C 270.884 217.377,272.537 219.031,274.558 221.025 L 278.233 224.651 274.606 220.977 C 271.237 217.563,270.884 217.218,270.884 217.351 M148.982 245.346 C 149.419 245.385,150.089 245.385,150.470 245.345 C 150.851 245.305,150.493 245.272,149.674 245.273 C 148.856 245.274,148.544 245.306,148.982 245.346 M62.783 246.186 C 62.735 246.314,62.717 253.912,62.744 263.070 L 62.793 279.721 62.838 262.932 L 62.884 246.143 73.535 246.093 L 84.186 246.043 73.529 245.998 C 65.141 245.963,62.853 246.003,62.783 246.186 M91.580 246.088 L 93.207 246.154 93.256 262.891 L 93.305 279.628 93.304 262.837 L 93.302 246.047 91.628 246.034 L 89.953 246.022 91.580 246.088 M102.419 246.072 C 103.719 246.209,105.633 246.222,105.553 246.093 C 105.505 246.016,104.655 245.967,103.663 245.983 C 102.672 246.000,102.112 246.040,102.419 246.072 M124.365 246.186 C 124.316 246.314,124.298 252.907,124.325 260.837 L 124.374 275.256 124.420 260.705 L 124.465 246.154 126.093 246.092 L 127.721 246.030 126.087 245.992 C 124.922 245.964,124.428 246.020,124.365 246.186 M236.554 262.884 C 236.554 272.144,236.577 275.933,236.605 271.302 C 236.632 266.672,236.632 259.095,236.605 254.465 C 236.577 249.835,236.554 253.623,236.554 262.884 M288.275 262.884 C 288.275 272.144,288.298 275.933,288.326 271.302 C 288.353 266.672,288.353 259.095,288.326 254.465 C 288.298 249.835,288.275 253.623,288.275 262.884 M351.327 248.279 C 351.327 249.507,351.357 249.985,351.394 249.342 C 351.430 248.698,351.430 247.693,351.393 247.109 C 351.356 246.525,351.326 247.051,351.327 248.279 M306.558 249.434 C 306.788 249.478,307.165 249.478,307.395 249.434 C 307.626 249.389,307.437 249.353,306.977 249.353 C 306.516 249.353,306.328 249.389,306.558 249.434 M202.372 250.372 C 203.933 250.403,206.486 250.403,208.047 250.372 C 209.607 250.341,208.330 250.315,205.209 250.315 C 202.088 250.315,200.812 250.341,202.372 250.372 M215.527 250.465 C 215.479 250.593,215.461 257.228,215.488 265.209 L 215.537 279.721 215.583 265.072 L 215.628 250.424 221.256 250.372 L 226.884 250.320 221.250 250.276 C 216.882 250.242,215.596 250.285,215.527 250.465 M331.430 255.442 C 331.430 258.256,331.456 259.407,331.488 258.000 C 331.520 256.593,331.520 254.291,331.488 252.884 C 331.456 251.477,331.430 252.628,331.430 255.442 M157.209 251.965 C 157.209 251.997,157.481 252.269,157.814 252.570 L 158.419 253.116 157.872 252.512 C 157.363 251.948,157.209 251.821,157.209 251.965 M247.814 253.860 C 247.814 254.867,247.851 255.653,247.897 255.607 C 248.029 255.475,248.063 252.280,247.932 252.149 C 247.867 252.084,247.814 252.854,247.814 253.860 M349.837 262.419 C 349.837 263.544,349.868 263.981,349.905 263.389 C 349.942 262.796,349.942 261.876,349.904 261.342 C 349.867 260.809,349.837 261.293,349.837 262.419 M133.461 263.163 C 133.461 264.084,133.492 264.484,133.531 264.052 C 133.570 263.620,133.571 262.867,133.532 262.378 C 133.494 261.889,133.462 262.242,133.461 263.163 M331.431 269.953 C 331.431 273.074,331.457 274.351,331.488 272.791 C 331.519 271.230,331.519 268.677,331.488 267.116 C 331.457 265.556,331.431 266.833,331.431 269.953 M179.395 265.628 C 181.007 265.659,183.644 265.659,185.256 265.628 C 186.867 265.597,185.549 265.571,182.326 265.571 C 179.102 265.571,177.784 265.597,179.395 265.628 M157.291 273.907 L 156.744 274.512 157.349 273.965 C 157.681 273.665,157.953 273.393,157.953 273.361 C 157.953 273.217,157.800 273.343,157.291 273.907 M148.791 280.694 C 149.226 280.734,149.937 280.734,150.372 280.694 C 150.807 280.655,150.451 280.623,149.581 280.623 C 148.712 280.623,148.356 280.655,148.791 280.694 M306.558 280.694 C 306.993 280.734,307.705 280.734,308.140 280.694 C 308.574 280.655,308.219 280.623,307.349 280.623 C 306.479 280.623,306.123 280.655,306.558 280.694 " stroke="none" fill="#75a5c4" fill-rule="evenodd"></path><path id="path4" d="M253.581 69.258 C 253.581 69.284,255.235 70.938,257.256 72.932 L 260.930 76.558 257.304 72.884 C 253.935 69.470,253.581 69.125,253.581 69.258 M239.628 186.326 C 240.596 187.298,241.430 188.093,241.481 188.093 C 241.532 188.093,240.782 187.298,239.814 186.326 C 238.846 185.353,238.012 184.558,237.961 184.558 C 237.910 184.558,238.660 185.353,239.628 186.326 M263.628 210.095 C 263.628 210.121,265.281 211.775,267.302 213.769 L 270.977 217.395 267.351 213.721 C 263.981 210.307,263.628 209.963,263.628 210.095 " stroke="none" fill="#94bcd4" fill-rule="evenodd"></path></g></svg>